<?xml version="1.0" standalone="no"?>
<svg width="400" height="250" version="1.1" xmlns="http://www.w3.org/2000/svg">

  <rect x="10" y="10" width="90" height="90" stroke="black" fill="none" stroke-width="15"/>
  <rect x="160" y="10" rx="20" ry="20" width="90" height="90" fill="none" stroke="black" stroke-width="15"/>

  <circle cx="25" cy="175" r="20" stroke="red" fill="transparent" stroke-width="5"/>
  <ellipse cx="175" cy="175" rx="20" ry="5" stroke="red" fill="transparent" stroke-width="5"/>

  <line x1="10" x2="50" y1="110" y2="150" stroke="orange" stroke-width="5"/>
  <polyline points="60 110 65 120 70 115 75 130 80 125 85 140 90 135 95 150 100 145"
            stroke="orange" fill="transparent" stroke-width="5"/>

  <polygon points="50 160 55 180 70 180 60 190 65 205 50 195 35 205 40 190 30 180 45 180"
           stroke="green" fill="transparent" stroke-width="5"/>

  <path d="M20,230 Q40,205 50,230 T90,230" fill="none" stroke="blue" stroke-width="5"/>
</svg>